<?xml version="1.0" standalone="no"?>
<!DOCTYPE svg PUBLIC "-//W3C//DTD SVG 20010904//EN"
 "http://www.w3.org/TR/2001/REC-SVG-20010904/DTD/svg10.dtd">
<svg version="1.0" xmlns="http://www.w3.org/2000/svg"
 width="225.000000pt" height="216.000000pt" viewBox="0 0 225.000000 216.000000"
 preserveAspectRatio="xMidYMid meet">

<g transform="translate(0.000000,216.000000) scale(0.100000,-0.100000)"
fill="#000000" stroke="none">
<path d="M0 1080 l0 -1080 1125 0 1125 0 0 1080 0 1080 -545 0 -545 0 0 -520
c0 -513 0 -520 -20 -520 -15 0 -20 7 -20 25 l0 25 -250 0 c-243 0 -250 1 -250
20 0 19 7 20 250 20 l250 0 0 475 0 475 -40 0 c-39 0 -40 -1 -40 -35 0 -30 -3
-35 -24 -35 -53 0 -227 -53 -315 -95 -208 -101 -345 -238 -446 -446 -130 -270
-130 -548 0 -818 101 -208 238 -345 446 -446 270 -130 548 -130 818 0 208 101
345 238 446 446 130 270 130 548 0 818 -127 263 -353 446 -632 514 l-93 22 0
34 0 34 50 -7 c129 -17 303 -92 426 -184 189 -141 321 -335 386 -569 19 -66
22 -105 22 -253 0 -148 -3 -187 -22 -253 -51 -186 -137 -333 -271 -468 -135
-134 -282 -220 -468 -271 -66 -19 -105 -22 -253 -22 -196 0 -258 12 -410 78
-227 98 -437 310 -530 533 -63 150 -74 211 -74 403 0 148 3 187 22 253 106
384 403 668 782 748 l85 18 -492 0 -493 1 0 -1080z m1509 412 c155 -243 284
-449 287 -456 3 -8 -119 34 -288 99 l-293 112 -3 354 c-1 213 1 349 7 344 5
-6 136 -209 290 -453z m-309 -411 c100 -11 223 -37 251 -51 10 -6 19 -17 19
-25 0 -13 -46 -15 -347 -13 l-348 3 3 35 c1 19 7 39 13 45 24 24 227 28 409 6z
m655 -188 c-25 -49 -59 -100 -74 -114 -38 -36 -156 -56 -402 -69 -107 -6 -195
-14 -197 -18 -2 -4 -31 -63 -65 -132 l-62 -125 -98 -14 c-60 -8 -102 -10 -108
-4 -5 5 21 63 66 144 41 73 75 137 75 140 0 3 -46 9 -102 13 -192 12 -488 73
-488 100 0 8 11 39 25 69 21 49 29 57 57 61 43 7 941 33 1211 34 l209 2 -47
-87z"/>
</g>
</svg>
